<svg xmlns="http://www.w3.org/2000/svg" viewBox="0 0 32 32" fill="none">
  <rect width="32" height="32" rx="7" fill="#3b82f6"/>
  <!-- Brackets -->
  <path d="M9 8 L7 8 Q6 8 6 9 L6 23 Q6 24 7 24 L9 24" stroke="#fff" stroke-width="1.8" stroke-linecap="round" stroke-linejoin="round" fill="none"/>
  <path d="M23 8 L25 8 Q26 8 26 9 L26 23 Q26 24 25 24 L23 24" stroke="#fff" stroke-width="1.8" stroke-linecap="round" stroke-linejoin="round" fill="none"/>
  <!-- Nodes -->
  <rect x="12" y="9" width="8" height="4" rx="1" fill="#fff"/>
  <rect x="9" y="14.5" width="6" height="3.5" rx="1" fill="#fff" opacity="0.7"/>
  <rect x="17" y="14.5" width="6" height="3.5" rx="1" fill="#fff" opacity="0.7"/>
  <rect x="12" y="19.5" width="8" height="4" rx="1" fill="#fff"/>
  <!-- Connections -->
  <line x1="14" y1="13" x2="12" y2="14.5" stroke="#fff" stroke-width="1" opacity="0.5"/>
  <line x1="18" y1="13" x2="20" y2="14.5" stroke="#fff" stroke-width="1" opacity="0.5"/>
  <line x1="12" y1="18" x2="14" y2="19.5" stroke="#fff" stroke-width="1" opacity="0.5"/>
  <line x1="20" y1="18" x2="18" y2="19.5" stroke="#fff" stroke-width="1" opacity="0.5"/>
</svg>
